<svg width="307" height="284" viewBox="0 0 307 284" fill="none" xmlns="http://www.w3.org/2000/svg">
<path d="M146.089 95.668C131.414 102.747 134.71 119.505 138.193 127C127.114 127 116.488 108.046 112.56 98.5691C101.181 99.5845 75.4595 99.1203 63.6028 89.1404C48.782 76.6657 49.2679 39.6764 66.5184 13.7115C83.7688 -12.2535 225.174 9.50484 248.377 10.0851C271.58 10.6653 286.523 39.0962 272.674 80.292C258.825 121.488 164.433 86.8196 146.089 95.668Z" fill="white" stroke="#B1CCFF" stroke-width="2"></path>
<path d="M177.528 244.139L184.158 246.689L194.421 239.195L163.616 196.325L130.183 170.003L177.528 244.139Z" fill="#808080"></path>
<rect x="145.301" y="207.375" width="11.1564" height="6.3013" transform="rotate(-119.719 145.301 207.375)" fill="#C4C4C4"></rect>
<path d="M155.277 177.511L153.238 181.108L154.699 183.666L156.325 179.346L155.277 177.511Z" fill="#A7A7A7"></path>
<rect x="138.336" y="195.174" width="11.1564" height="6.3013" transform="rotate(-119.719 138.336 195.174)" fill="#C4C4C4"></rect>
<path d="M187.769 251.764L183.85 246.983C194.138 236.71 203.529 233.202 206.939 232.733L209.115 236.546C198.288 242.25 190.373 249.068 187.769 251.764Z" fill="#A7A7A7"></path>
<path d="M146.648 218.59L123.418 182.22C124.717 178.576 128.325 178.209 129.967 178.481L152.748 215.107C152.088 218.41 148.406 218.805 146.648 218.59Z" fill="#A7A7A7"></path>
<path d="M125.761 157.985L107.74 130.27C108.742 124.44 113.465 124.811 115.702 125.725L134.207 154.235L125.761 157.985Z" fill="#9B9B9B"></path>
<path d="M135.087 160.782L125.614 146.214C126.14 143.15 128.623 143.345 129.798 143.825L139.525 158.811L135.087 160.782Z" fill="#A7A7A7"></path>
<path d="M122.285 167.106L124.561 163.488L129.861 172.773L126.024 173.655L122.285 167.106Z" fill="#C4C4C4"></path>
<path d="M124.076 158.888L126.352 155.269L131.652 164.555L127.815 165.437L124.076 158.888Z" fill="#C4C4C4"></path>
<path fill-rule="evenodd" clip-rule="evenodd" d="M155.034 183.872L160.952 192.701C161.249 191.085 162.219 188.106 163.728 189.124C165.614 190.397 177.909 188.077 179.463 186.476C181.017 184.875 174.276 167.492 171.475 170.607C168.681 173.714 143.357 166.373 142.92 165.8L142.917 165.796C142.918 165.797 142.919 165.799 142.92 165.8L148.409 173.989C155.39 175.277 166.173 176.858 169.143 175.642C173.632 173.804 174.018 180.429 171.587 181.381C169.55 182.18 159.168 183.724 155.034 183.872ZM134.403 152.13L136.444 150.965L144.962 163.231L142.316 164.742L134.403 152.13Z" fill="#A7A7A7"></path>
<path d="M206.811 232.925L194.997 240.62L163.769 196.594L158.364 199.68L165.97 211.545L159.997 215.876L158.943 216.478L155.071 214.227L123.725 163.846L125.228 162.989C125.669 162.737 126.705 162.003 127.32 161.08C127.936 160.158 126.128 156.527 125.148 154.827L134.839 151.644L149.285 173.669C154.873 182.364 166.677 199.865 169.191 200.309C172.333 200.865 179.708 205.814 184.283 209.298C187.944 212.085 185.973 214.984 184.53 216.086C185.746 220.173 195.543 223.448 200.289 224.575L206.811 232.925Z" fill="#9B9B9B"></path>
<path d="M130.967 173.75C140.489 173.75 146.653 177.256 148.544 179.009C156.739 196.528 127.777 209.394 125.404 212.799C123.031 216.205 118.358 211.285 115.948 211.285C113.538 211.285 113.389 209.772 109.125 208.258C104.86 206.745 107.271 200.918 103.192 200.35C99.1125 199.783 100.967 196.566 96.7392 195.242C92.5118 193.918 96.5538 190.172 91.7331 189.415C86.9123 188.658 91.3622 185.442 87.654 183.928C83.9457 182.415 85.2066 180.417 85.2066 177.117C85.2066 171.593 111.312 151.879 111.313 154.187C120.42 155.458 128.21 167.758 130.967 173.75Z" fill="white"></path>
<path d="M3.32566 120C97.5302 120 98.9555 152.027 109.374 153.446C117.609 156.678 124.807 166.514 87.7229 180C84.3293 178.649 86.3994 176.959 82.3271 176.791C78.2549 176.622 83.6846 169.392 75.3704 172.095C67.0562 174.797 69.6353 170.912 64.2057 170.912C59.8619 170.912 60.3823 168.885 61.1854 167.872C59.8846 168.378 56.4005 168.885 52.8713 166.858C50.0465 165.236 52.9957 163.281 54.5474 162.475C50.9743 163.94 43.0607 160.639 41.3672 158.953C40.4094 157.999 43.1818 156.831 45.2598 156.176C40.9762 156.487 31.6927 155.005 30.3043 153.446C29.0283 152.014 33.3245 149.561 35.6321 148.514C31.1187 148.739 21.8883 148.851 21.0738 147.5C20.3805 146.35 25.0809 143.943 28.6017 142.405C22.1407 144.781 16.7002 142.995 14.6601 141.689C21.7639 137.601 33.9829 130.554 26.0284 135.068C18.074 139.581 12.3072 136.948 10.4181 135.068C17.3636 133.187 28.9808 129.426 19.8861 129.426C10.7914 129.426 2.83926 127.218 0 126.115C8.51777 125.484 23.3747 124.128 14.6601 123.75C5.94547 123.372 3.47272 121.092 3.32566 120Z" fill="white"></path>
<path d="M176.033 172.75C166.511 172.75 160.347 176.256 158.456 178.009C150.261 195.528 179.223 208.394 181.596 211.799C183.969 215.205 188.642 210.285 191.052 210.285C193.462 210.285 193.611 208.772 197.875 207.258C202.14 205.745 199.729 199.918 203.808 199.35C207.887 198.783 206.033 195.566 210.261 194.242C214.488 192.918 210.446 189.172 215.267 188.415C220.088 187.658 215.638 184.442 219.346 182.928C223.054 181.415 221.793 179.417 221.793 176.117C221.793 170.593 195.688 150.879 195.687 153.187C186.58 154.458 178.79 166.758 176.033 172.75Z" fill="white"></path>
<path d="M303.674 117C209.47 117 208.045 150.095 197.626 151.561C189.391 154.901 182.193 165.064 219.277 179C222.671 177.604 220.601 175.858 224.673 175.684C228.745 175.509 223.315 168.038 231.63 170.831C239.944 173.624 237.365 169.609 242.794 169.609C247.138 169.609 246.618 167.515 245.815 166.467C247.115 166.991 250.599 167.515 254.129 165.42C256.953 163.744 254.004 161.724 252.453 160.891C256.026 162.405 263.939 158.993 265.633 157.251C266.591 156.266 263.818 155.058 261.74 154.381C266.024 154.703 275.307 153.171 276.696 151.561C277.972 150.081 273.675 147.546 271.368 146.464C275.881 146.697 285.112 146.813 285.926 145.417C286.619 144.228 281.919 141.741 278.398 140.151C284.859 142.607 290.3 140.761 292.34 139.412C285.236 135.188 273.017 127.906 280.972 132.57C288.926 137.234 294.693 134.513 296.582 132.57C289.636 130.627 278.019 126.74 287.114 126.74C296.209 126.74 304.161 124.459 307 123.319C298.482 122.667 283.625 121.266 292.34 120.875C301.055 120.484 303.527 118.129 303.674 117Z" fill="white"></path>
<path d="M133.455 178.767C140.095 174.647 146.246 138.789 148.492 121.375C155.241 120.337 167.81 118.885 164.088 121.375C159.435 124.487 160.44 129.637 157.35 145.68C154.261 161.723 164.088 174.098 177.078 183.398C190.068 192.698 179.125 223.191 168.74 242.828C158.355 262.465 148.492 260.946 129.807 255.24C111.122 249.534 116.817 230.971 116.817 210.816C116.817 190.66 125.154 183.917 133.455 178.767Z" fill="white"></path>
<path d="M129.079 267.551C134.538 257.748 132.635 252.658 131.001 251.338C127.549 249.867 127.314 253.186 127.039 261.481C126.765 269.776 123.47 274.376 121.705 276.375C119.94 278.373 110.331 281.766 112.253 282.445C113.79 282.988 117.077 281.264 118.528 280.334C117.116 282.747 115.775 286.412 121.705 281.766C129.118 275.96 137.864 280.975 138.806 280.334C139.559 279.821 137.943 278.536 137.041 277.958C135.668 277.732 132.154 277.099 129.079 276.375C126.004 275.651 127.798 270.191 129.079 267.551Z" fill="#FF6B0A"></path>
<path d="M155.554 267.551C150.296 257.748 152.129 252.658 153.703 251.338C157.027 249.867 157.253 253.186 157.518 261.481C157.782 269.776 160.955 274.376 162.654 276.375C164.354 278.373 173.607 281.766 171.757 282.445C170.276 282.988 167.111 281.264 165.714 280.334C167.073 282.747 168.365 286.412 162.654 281.766C155.516 275.96 147.094 280.975 146.187 280.334C145.462 279.821 147.018 278.536 147.887 277.958C149.209 277.732 152.593 277.099 155.554 276.375C158.515 275.651 156.788 270.191 155.554 267.551Z" fill="#FF6B0A"></path>
<path d="M149.178 107.247C149.386 101.904 154.508 101.88 157.044 102.535C163.871 101.009 162.943 110.401 164.501 112.33C166.06 114.26 165.948 116.152 165.429 121.791C164.909 127.431 157.044 132.403 152.999 131.846C148.955 131.29 146.321 125.576 144.725 119.825C143.13 114.074 148.918 113.926 149.178 107.247Z" fill="white"></path>
<ellipse rx="1.33452" ry="2.0971" transform="matrix(-0.978865 0.204508 0.204508 0.978865 163.102 109.532)" fill="#0D070C"></ellipse>
<ellipse cx="148.973" cy="109.767" rx="1.33452" ry="2.0971" transform="rotate(6.93695 148.973 109.767)" fill="#0D070C"></ellipse>
<ellipse cx="162.206" cy="119.446" rx="3.2252" ry="4.5429" transform="rotate(22.9491 162.206 119.446)" fill="url('#paint0_radial_15803_453')"></ellipse>
<ellipse cx="148.546" cy="118.983" rx="3.2252" ry="4.5429" transform="rotate(-35.1816 148.546 118.983)" fill="url('#paint1_radial_15803_453')"></ellipse>
<ellipse opacity="0.2" rx="0.598251" ry="0.940109" transform="matrix(-0.895075 0.445916 0.445916 0.895075 149.024 109.068)" fill="white"></ellipse>
<ellipse opacity="0.2" rx="0.598251" ry="0.940109" transform="matrix(-0.895075 0.445916 0.445916 0.895075 163.136 108.681)" fill="white"></ellipse>
<path d="M161.476 112.95C161.499 106.308 155.094 105.471 155.124 105.552C148.804 107.537 149.621 113.226 149.884 114.062C150.606 116.363 146.816 118.585 148.078 120.96C149.339 123.336 149.538 128.388 150.64 131.871C151.315 134.006 152.23 134.757 152.862 134.931C152.696 134.94 152.766 134.945 152.933 134.949C153.096 134.984 153.237 134.98 153.347 134.953C153.193 134.952 153.043 134.951 152.933 134.949C152.91 134.944 152.886 134.938 152.862 134.931C153.081 134.92 153.709 134.903 155.061 134.88C158.875 134.813 158.9 129.803 161.943 123.949C164.986 118.096 161.447 121.251 161.476 112.95Z" fill="#FF6B0A"></path>
<path d="M154.958 132.451C157.994 132.055 158.691 125.248 158.66 121.894C156.769 121.561 152.685 121.156 151.47 122.2C149.951 123.504 151.163 132.946 154.958 132.451Z" fill="#1F0C02"></path>
<path d="M154.302 131.62C152.158 131.444 152.633 126.746 153.138 124.419L157.281 124.243C157.182 126.775 156.447 131.796 154.302 131.62Z" fill="#956C7C"></path>
<path d="M154.468 129.939C154.014 129.643 154.461 124.995 154.742 122.707L155.656 122.766C155.449 125.28 154.922 130.235 154.468 129.939Z" fill="#86616F"></path>
<path d="M159.789 119.27C157.546 114.977 158.642 112.497 159.471 111.794C156.092 107.702 152.508 110.325 151.138 112.148C153.749 116.331 151.793 112.979 150.503 119.665C149.471 125.013 153.043 126.665 154.957 126.822C157.503 126.094 162.032 123.564 159.789 119.27Z" fill="#EA5F03"></path>
<path d="M150.337 121.886C154.932 115.05 158.738 119.748 160.066 122.951C159.679 124.304 158.091 126.976 154.841 126.847C151.592 126.717 150.485 123.486 150.337 121.886Z" fill="#EFE5D5"></path>
<path d="M155.744 120.82C155.773 120.253 155.92 119.201 156.271 119.526C156.622 119.852 156.066 120.524 155.744 120.82Z" fill="#DACAB0"></path>
<path d="M154.67 120.867C154.682 120.3 154.612 119.24 154.238 119.539C153.864 119.838 154.371 120.549 154.67 120.867Z" fill="#DACAB0"></path>
<path d="M151.853 98.397L151.627 103.251C154.382 105.684 159.24 104.542 161.325 103.667L161.482 98.7181L151.853 98.397Z" fill="#373500"></path>
<path d="M151.627 103.251C152.349 105.838 155.347 109.301 161.314 103.632L151.627 103.251Z" fill="#373500"></path>
<ellipse rx="4.82508" ry="0.831725" transform="matrix(-0.99961 -0.0279109 -0.0279109 0.99961 156.657 98.5588)" fill="#373500"></ellipse>
<path d="M151.853 98.397L151.627 103.251C154.382 105.684 159.24 104.542 161.325 103.667L161.482 98.7181C161.482 98.7181 160.703 98.8594 160.2 98.8483C159.598 98.8349 158.679 98.5869 158.679 98.5869L155.883 102.809L154.46 98.2784C154.46 98.2784 153.686 98.6698 153.151 98.6896C152.632 98.7088 151.853 98.397 151.853 98.397Z" fill="#4B4800"></path>
<path d="M156.959 99.1298C156.935 99.1416 156.916 99.1501 156.898 99.1613C156.751 99.2496 156.657 99.3594 156.611 99.5228C156.591 99.592 156.58 99.6643 156.565 99.7339C156.552 99.7956 156.539 99.8561 156.525 99.9177C156.521 99.9336 156.522 99.9408 156.541 99.9449C156.58 99.9522 156.612 99.9739 156.625 100.014C156.636 100.049 156.627 100.08 156.604 100.106C156.58 100.133 156.548 100.141 156.513 100.139C156.495 100.137 156.484 100.129 156.477 100.112C156.415 99.9829 156.385 99.8471 156.381 99.7045C156.379 99.5865 156.399 99.4708 156.415 99.3558C156.424 99.2902 156.43 99.2232 156.441 99.1578C156.447 99.1165 156.45 99.0771 156.444 99.0357C156.437 98.9943 156.422 98.9555 156.396 98.9192C156.363 98.9475 156.34 98.9825 156.328 99.0221C156.317 99.0596 156.311 99.0998 156.306 99.1378C156.301 99.1792 156.301 99.2212 156.299 99.2618C156.292 99.3695 156.286 99.4773 156.275 99.5847C156.257 99.7636 156.195 99.9266 156.089 100.071C156.075 100.091 156.058 100.095 156.037 100.091C155.981 100.081 155.943 100.034 155.949 99.982C155.953 99.9335 156 99.8938 156.055 99.8968C156.075 99.8975 156.077 99.8907 156.076 99.8743C156.074 99.789 156.073 99.7026 156.072 99.6174C156.069 99.5205 156.073 99.4241 156.042 99.3302C156.001 99.2062 155.932 99.1191 155.829 99.038C155.821 99.0326 155.813 99.0272 155.802 99.0191C155.801 99.0295 155.801 99.0364 155.8 99.0434C155.757 99.4902 155.715 99.9186 155.672 100.366C155.67 100.391 155.67 100.391 155.694 100.393C155.786 100.402 155.879 100.411 155.971 100.42C155.987 100.422 155.993 100.427 155.995 100.443C156.01 100.568 156.063 100.676 156.157 100.762C156.176 100.78 156.193 100.803 156.211 100.823C156.269 100.768 156.346 100.734 156.397 100.668C156.439 100.613 156.474 100.555 156.493 100.489C156.498 100.475 156.505 100.471 156.519 100.472C156.613 100.481 156.706 100.49 156.8 100.499C156.817 100.501 156.824 100.498 156.826 100.479C156.869 100.03 156.911 99.5984 156.954 99.1492C156.957 99.1472 156.957 99.1425 156.959 99.1298ZM156.837 99.3255C156.839 99.3269 156.842 99.3272 156.844 99.3286C156.844 99.3367 156.843 99.3447 156.842 99.3528C156.821 99.5688 156.802 99.7674 156.781 99.9833C156.778 100.019 156.778 100.019 156.74 100.016C156.726 100.014 156.72 100.01 156.718 99.9958C156.708 99.9517 156.683 99.9167 156.647 99.8922C156.631 99.8814 156.63 99.8708 156.634 99.8548C156.652 99.7762 156.672 99.6965 156.686 99.6175C156.702 99.5351 156.727 99.4746 156.776 99.4059C156.795 99.3774 156.816 99.3527 156.837 99.3255ZM155.879 99.2363C155.881 99.2365 155.882 99.2355 155.885 99.2357C155.891 99.2456 155.897 99.2555 155.902 99.2653C155.94 99.339 155.972 99.3969 155.976 99.48C155.98 99.5852 155.981 99.6903 155.984 99.7955C155.985 99.8095 155.981 99.8184 155.966 99.8252C155.926 99.8434 155.895 99.8719 155.875 99.9131C155.867 99.9321 155.853 99.9355 155.824 99.9268C155.805 99.9215 155.814 99.9083 155.815 99.8979C155.836 99.6786 155.856 99.4765 155.877 99.2559C155.876 99.2489 155.877 99.242 155.879 99.2363ZM156.52 100.235C156.526 100.235 156.533 100.234 156.541 100.233C156.616 100.224 156.676 100.193 156.707 100.121C156.711 100.111 156.716 100.106 156.727 100.109C156.735 100.109 156.743 100.11 156.751 100.111C156.763 100.112 156.767 100.117 156.766 100.129C156.757 100.215 156.749 100.303 156.739 100.39C156.739 100.394 156.729 100.404 156.724 100.403C156.661 100.398 156.597 100.392 156.535 100.385C156.53 100.384 156.521 100.375 156.521 100.371C156.52 100.326 156.52 100.282 156.52 100.235ZM156.022 100.187C156.013 100.233 156.003 100.276 155.994 100.321C155.992 100.334 155.983 100.333 155.973 100.332C155.914 100.326 155.856 100.319 155.797 100.315C155.778 100.313 155.773 100.305 155.776 100.288C155.784 100.211 155.791 100.133 155.798 100.055C155.802 100.019 155.802 100.019 155.838 100.023C155.848 100.024 155.858 100.024 155.86 100.038C155.874 100.108 155.921 100.149 155.984 100.175C155.997 100.18 156.011 100.183 156.022 100.187ZM156.3 99.8855C156.324 99.9776 156.348 100.067 156.391 100.153C156.352 100.174 156.316 100.194 156.279 100.212C156.274 100.215 156.263 100.212 156.257 100.208C156.229 100.186 156.203 100.163 156.175 100.141C156.166 100.135 156.164 100.129 156.171 100.119C156.221 100.053 156.257 99.9792 156.29 99.9032C156.294 99.8977 156.297 99.891 156.3 99.8855ZM156.396 100.462C156.395 100.523 156.319 100.637 156.279 100.648C156.278 100.647 156.277 100.646 156.277 100.646C156.283 100.585 156.288 100.525 156.295 100.467C156.295 100.462 156.304 100.456 156.309 100.455C156.338 100.456 156.367 100.46 156.396 100.462ZM156.181 100.641C156.134 100.607 156.088 100.478 156.101 100.433C156.126 100.435 156.154 100.438 156.18 100.44C156.195 100.442 156.199 100.448 156.198 100.462C156.193 100.51 156.188 100.559 156.184 100.607C156.184 100.618 156.183 100.628 156.181 100.641ZM156.364 100.367C156.349 100.366 156.332 100.365 156.318 100.362C156.313 100.361 156.305 100.351 156.306 100.348C156.318 100.297 156.355 100.257 156.405 100.25C156.415 100.249 156.421 100.251 156.422 100.262C156.424 100.294 156.424 100.325 156.426 100.358C156.426 100.37 156.418 100.374 156.408 100.373C156.394 100.37 156.379 100.369 156.364 100.367ZM156.15 100.347C156.136 100.345 156.123 100.344 156.109 100.343C156.095 100.342 156.088 100.336 156.092 100.321C156.098 100.292 156.104 100.264 156.112 100.236C156.115 100.222 156.123 100.219 156.136 100.225C156.179 100.242 156.214 100.293 156.211 100.338C156.21 100.343 156.201 100.35 156.197 100.351C156.18 100.351 156.165 100.348 156.15 100.347Z" fill="#FFD500"></path>
<path d="M141.066 161.794C148.597 164.522 154.772 162.087 158.393 160.421L159.283 162.981C151.128 167.339 144.022 165.831 140.435 164.205L141.066 161.794Z" fill="#005BBB"></path>
<path d="M140.398 164.354C149.425 167.962 155.712 164.72 159.357 163.092L160.396 165.652C152.172 169.925 143.349 168.066 139.804 166.394L140.398 164.354Z" fill="#FFD500"></path>
<path d="M139.997 165.899C134.664 165.884 125.6 169.667 131.942 183.51C138.237 197.25 138.917 206.41 135.025 205.204C134.997 205.194 134.968 205.184 134.938 205.176C134.967 205.186 134.996 205.195 135.025 205.204C136.1 205.618 135.409 207.839 135.917 208.614C140.336 208.91 141.128 200.36 132.626 183.229C130.619 178.634 129.806 169.195 139.304 168.203L139.997 165.899Z" fill="#FFD500"></path>
<path d="M140.986 162.564C135.624 161.663 129.671 161.919 134.46 177.033C139.201 191.993 132.87 191.822 129.003 189.824C128.966 189.802 128.926 189.781 128.883 189.762C128.923 189.783 128.963 189.804 129.003 189.824C129.948 190.398 128.633 191.757 129.05 192.618C133.461 193.653 140.861 191.95 135.18 176.862C133.689 171.861 130.731 163.894 140.398 164.466L140.986 162.564Z" fill="#005BBB"></path>
<path d="M116.5 211.5C159.807 239.401 167.893 198.168 166.273 174.15L169 173H172.283C176.291 236.461 135.311 232.838 116.5 220V211.5Z" fill="#9B9B9B"></path>
<path d="M100.648 29.9609L103.492 22.625H105.828L101.906 31.8672C101.776 32.1641 101.628 32.4505 101.461 32.7266C101.294 33.0026 101.094 33.25 100.859 33.4688C100.63 33.6823 100.352 33.8516 100.023 33.9766C99.7005 34.1016 99.3099 34.1641 98.8516 34.1641C98.7318 34.1641 98.5885 34.1589 98.4219 34.1484C98.2552 34.1432 98.1276 34.1354 98.0391 34.125V32.4375C98.1016 32.4531 98.2031 32.4635 98.3438 32.4688C98.4896 32.474 98.5938 32.4766 98.6562 32.4766C98.9583 32.4766 99.1979 32.4297 99.375 32.3359C99.5573 32.237 99.7005 32.1042 99.8047 31.9375C99.9141 31.7656 100.01 31.5703 100.094 31.3516L100.648 29.9609ZM98.6328 22.625L101.359 28.5859L102 30.9062L100.367 30.9531L96.3047 22.625H98.6328ZM109.961 32.5312C110.253 32.5312 110.513 32.474 110.742 32.3594C110.971 32.2448 111.154 32.0833 111.289 31.875C111.43 31.6667 111.505 31.4245 111.516 31.1484H113.461C113.451 31.7214 113.289 32.2344 112.977 32.6875C112.664 33.1406 112.247 33.5 111.727 33.7656C111.211 34.026 110.633 34.1562 109.992 34.1562C109.341 34.1562 108.773 34.0469 108.289 33.8281C107.805 33.6094 107.401 33.3047 107.078 32.9141C106.76 32.5234 106.521 32.0703 106.359 31.5547C106.203 31.0391 106.125 30.487 106.125 29.8984V29.6484C106.125 29.0599 106.203 28.5078 106.359 27.9922C106.521 27.4766 106.76 27.0234 107.078 26.6328C107.401 26.2422 107.805 25.9375 108.289 25.7188C108.773 25.5 109.339 25.3906 109.984 25.3906C110.667 25.3906 111.266 25.5234 111.781 25.7891C112.302 26.0547 112.708 26.4297 113 26.9141C113.297 27.3984 113.451 27.9688 113.461 28.625H111.516C111.505 28.3229 111.438 28.0521 111.312 27.8125C111.188 27.5729 111.01 27.3802 110.781 27.2344C110.552 27.0885 110.273 27.0156 109.945 27.0156C109.596 27.0156 109.305 27.0885 109.07 27.2344C108.841 27.3802 108.661 27.5807 108.531 27.8359C108.406 28.0859 108.318 28.3672 108.266 28.6797C108.219 28.987 108.195 29.3099 108.195 29.6484V29.8984C108.195 30.2422 108.219 30.5703 108.266 30.8828C108.318 31.1953 108.406 31.4766 108.531 31.7266C108.661 31.9714 108.841 32.1667 109.07 32.3125C109.305 32.4583 109.602 32.5312 109.961 32.5312ZM117.023 25.5469V34H114.953V25.5469H117.023ZM114.812 23.3359C114.812 23.0286 114.917 22.7734 115.125 22.5703C115.339 22.3672 115.625 22.2656 115.984 22.2656C116.344 22.2656 116.628 22.3672 116.836 22.5703C117.049 22.7734 117.156 23.0286 117.156 23.3359C117.156 23.638 117.049 23.8906 116.836 24.0938C116.628 24.2969 116.344 24.3984 115.984 24.3984C115.625 24.3984 115.339 24.2969 115.125 24.0938C114.917 23.8906 114.812 23.638 114.812 23.3359ZM126.445 32.5312C126.737 32.5312 126.997 32.474 127.227 32.3594C127.456 32.2448 127.638 32.0833 127.773 31.875C127.914 31.6667 127.99 31.4245 128 31.1484H129.945C129.935 31.7214 129.773 32.2344 129.461 32.6875C129.148 33.1406 128.732 33.5 128.211 33.7656C127.695 34.026 127.117 34.1562 126.477 34.1562C125.826 34.1562 125.258 34.0469 124.773 33.8281C124.289 33.6094 123.885 33.3047 123.562 32.9141C123.245 32.5234 123.005 32.0703 122.844 31.5547C122.688 31.0391 122.609 30.487 122.609 29.8984V29.6484C122.609 29.0599 122.688 28.5078 122.844 27.9922C123.005 27.4766 123.245 27.0234 123.562 26.6328C123.885 26.2422 124.289 25.9375 124.773 25.7188C125.258 25.5 125.823 25.3906 126.469 25.3906C127.151 25.3906 127.75 25.5234 128.266 25.7891C128.786 26.0547 129.193 26.4297 129.484 26.9141C129.781 27.3984 129.935 27.9688 129.945 28.625H128C127.99 28.3229 127.922 28.0521 127.797 27.8125C127.672 27.5729 127.495 27.3802 127.266 27.2344C127.036 27.0885 126.758 27.0156 126.43 27.0156C126.081 27.0156 125.789 27.0885 125.555 27.2344C125.326 27.3802 125.146 27.5807 125.016 27.8359C124.891 28.0859 124.802 28.3672 124.75 28.6797C124.703 28.987 124.68 29.3099 124.68 29.6484V29.8984C124.68 30.2422 124.703 30.5703 124.75 30.8828C124.802 31.1953 124.891 31.4766 125.016 31.7266C125.146 31.9714 125.326 32.1667 125.555 32.3125C125.789 32.4583 126.086 32.5312 126.445 32.5312ZM133.406 31.0547L136.484 25.5469H138.555V34H136.484V28.4844L133.406 34H131.336V25.5469H133.406V31.0547ZM143.898 32.5312C144.19 32.5312 144.451 32.474 144.68 32.3594C144.909 32.2448 145.091 32.0833 145.227 31.875C145.367 31.6667 145.443 31.4245 145.453 31.1484H147.398C147.388 31.7214 147.227 32.2344 146.914 32.6875C146.602 33.1406 146.185 33.5 145.664 33.7656C145.148 34.026 144.57 34.1562 143.93 34.1562C143.279 34.1562 142.711 34.0469 142.227 33.8281C141.742 33.6094 141.339 33.3047 141.016 32.9141C140.698 32.5234 140.458 32.0703 140.297 31.5547C140.141 31.0391 140.062 30.487 140.062 29.8984V29.6484C140.062 29.0599 140.141 28.5078 140.297 27.9922C140.458 27.4766 140.698 27.0234 141.016 26.6328C141.339 26.2422 141.742 25.9375 142.227 25.7188C142.711 25.5 143.276 25.3906 143.922 25.3906C144.604 25.3906 145.203 25.5234 145.719 25.7891C146.24 26.0547 146.646 26.4297 146.938 26.9141C147.234 27.3984 147.388 27.9688 147.398 28.625H145.453C145.443 28.3229 145.375 28.0521 145.25 27.8125C145.125 27.5729 144.948 27.3802 144.719 27.2344C144.49 27.0885 144.211 27.0156 143.883 27.0156C143.534 27.0156 143.242 27.0885 143.008 27.2344C142.779 27.3802 142.599 27.5807 142.469 27.8359C142.344 28.0859 142.255 28.3672 142.203 28.6797C142.156 28.987 142.133 29.3099 142.133 29.6484V29.8984C142.133 30.2422 142.156 30.5703 142.203 30.8828C142.255 31.1953 142.344 31.4766 142.469 31.7266C142.599 31.9714 142.779 32.1667 143.008 32.3125C143.242 32.4583 143.539 32.5312 143.898 32.5312ZM152.875 25.5469V34H150.805V25.5469H152.875ZM155.625 25.5469V27.1562H148.102V25.5469H155.625ZM160.07 34.1562C159.43 34.1562 158.854 34.0521 158.344 33.8438C157.833 33.6354 157.398 33.3464 157.039 32.9766C156.685 32.6016 156.411 32.1667 156.219 31.6719C156.031 31.1719 155.938 30.6354 155.938 30.0625V29.75C155.938 29.099 156.031 28.5078 156.219 27.9766C156.406 27.4401 156.672 26.9792 157.016 26.5938C157.359 26.2083 157.771 25.9115 158.25 25.7031C158.729 25.4948 159.258 25.3906 159.836 25.3906C160.435 25.3906 160.964 25.4922 161.422 25.6953C161.88 25.8932 162.263 26.1745 162.57 26.5391C162.878 26.9036 163.109 27.3411 163.266 27.8516C163.422 28.3568 163.5 28.9167 163.5 29.5312V30.3984H156.875V28.9766H161.469V28.8203C161.458 28.4922 161.396 28.1927 161.281 27.9219C161.167 27.6458 160.99 27.4271 160.75 27.2656C160.51 27.099 160.201 27.0156 159.82 27.0156C159.513 27.0156 159.245 27.0833 159.016 27.2188C158.792 27.349 158.604 27.5365 158.453 27.7812C158.307 28.0208 158.198 28.3073 158.125 28.6406C158.052 28.974 158.016 29.3438 158.016 29.75V30.0625C158.016 30.4167 158.062 30.7448 158.156 31.0469C158.255 31.349 158.398 31.612 158.586 31.8359C158.779 32.0547 159.008 32.2266 159.273 32.3516C159.544 32.4714 159.852 32.5312 160.195 32.5312C160.628 32.5312 161.018 32.4479 161.367 32.2812C161.721 32.1094 162.029 31.8568 162.289 31.5234L163.328 32.6016C163.151 32.862 162.911 33.112 162.609 33.3516C162.312 33.5911 161.953 33.7865 161.531 33.9375C161.109 34.0833 160.622 34.1562 160.07 34.1562ZM169.953 31.5625L172.328 25.5469H174.055L170.656 34H169.258L165.867 25.5469H167.602L169.953 31.5625ZM167.094 25.5469V34H165.023V25.5469H167.094ZM172.852 34V25.5469H174.922V34H172.852ZM179.062 31.0547L182.141 25.5469H184.211V34H182.141V28.4844L179.062 34H176.992V25.5469H179.062V31.0547ZM102 51.5625L104.375 45.5469H106.102L102.703 54H101.305L97.9141 45.5469H99.6484L102 51.5625ZM99.1406 45.5469V54H97.0703V45.5469H99.1406ZM104.898 54V45.5469H106.969V54H104.898ZM112.82 54.1562C112.18 54.1562 111.604 54.0521 111.094 53.8438C110.583 53.6354 110.148 53.3464 109.789 52.9766C109.435 52.6016 109.161 52.1667 108.969 51.6719C108.781 51.1719 108.688 50.6354 108.688 50.0625V49.75C108.688 49.099 108.781 48.5078 108.969 47.9766C109.156 47.4401 109.422 46.9792 109.766 46.5938C110.109 46.2083 110.521 45.9115 111 45.7031C111.479 45.4948 112.008 45.3906 112.586 45.3906C113.185 45.3906 113.714 45.4922 114.172 45.6953C114.63 45.8932 115.013 46.1745 115.32 46.5391C115.628 46.9036 115.859 47.3411 116.016 47.8516C116.172 48.3568 116.25 48.9167 116.25 49.5312V50.3984H109.625V48.9766H114.219V48.8203C114.208 48.4922 114.146 48.1927 114.031 47.9219C113.917 47.6458 113.74 47.4271 113.5 47.2656C113.26 47.099 112.951 47.0156 112.57 47.0156C112.263 47.0156 111.995 47.0833 111.766 47.2188C111.542 47.349 111.354 47.5365 111.203 47.7812C111.057 48.0208 110.948 48.3073 110.875 48.6406C110.802 48.974 110.766 49.3438 110.766 49.75V50.0625C110.766 50.4167 110.812 50.7448 110.906 51.0469C111.005 51.349 111.148 51.612 111.336 51.8359C111.529 52.0547 111.758 52.2266 112.023 52.3516C112.294 52.4714 112.602 52.5312 112.945 52.5312C113.378 52.5312 113.768 52.4479 114.117 52.2812C114.471 52.1094 114.779 51.8568 115.039 51.5234L116.078 52.6016C115.901 52.862 115.661 53.112 115.359 53.3516C115.062 53.5911 114.703 53.7865 114.281 53.9375C113.859 54.0833 113.372 54.1562 112.82 54.1562ZM123.312 45.5469V47.1797H119.711V54H117.648V45.5469H123.312ZM129.008 52.2031V48.3047C129.008 48.0182 128.958 47.7708 128.859 47.5625C128.76 47.3542 128.609 47.1927 128.406 47.0781C128.203 46.9635 127.945 46.9062 127.633 46.9062C127.357 46.9062 127.115 46.9531 126.906 47.0469C126.703 47.1406 126.547 47.2734 126.438 47.4453C126.328 47.612 126.273 47.8047 126.273 48.0234H124.203C124.203 47.6745 124.286 47.3438 124.453 47.0312C124.62 46.7135 124.857 46.4323 125.164 46.1875C125.477 45.9375 125.849 45.7422 126.281 45.6016C126.719 45.4609 127.208 45.3906 127.75 45.3906C128.391 45.3906 128.961 45.5 129.461 45.7188C129.966 45.9323 130.362 46.2552 130.648 46.6875C130.94 47.1198 131.086 47.6641 131.086 48.3203V52.0078C131.086 52.4297 131.112 52.7917 131.164 53.0938C131.221 53.3906 131.305 53.6484 131.414 53.8672V54H129.312C129.214 53.7865 129.138 53.5156 129.086 53.1875C129.034 52.8542 129.008 52.526 129.008 52.2031ZM129.297 48.8516L129.312 50.0781H128.008C127.685 50.0781 127.401 50.112 127.156 50.1797C126.911 50.2422 126.711 50.3359 126.555 50.4609C126.398 50.5807 126.281 50.7266 126.203 50.8984C126.125 51.0651 126.086 51.2552 126.086 51.4688C126.086 51.6771 126.133 51.8646 126.227 52.0312C126.326 52.1979 126.466 52.3307 126.648 52.4297C126.836 52.5234 127.055 52.5703 127.305 52.5703C127.669 52.5703 127.987 52.4974 128.258 52.3516C128.529 52.2005 128.74 52.0182 128.891 51.8047C129.042 51.5911 129.122 51.388 129.133 51.1953L129.727 52.0859C129.654 52.2995 129.544 52.526 129.398 52.7656C129.253 53.0052 129.065 53.2292 128.836 53.4375C128.607 53.6458 128.331 53.8177 128.008 53.9531C127.685 54.0885 127.31 54.1562 126.883 54.1562C126.336 54.1562 125.846 54.0469 125.414 53.8281C124.982 53.6094 124.641 53.3099 124.391 52.9297C124.141 52.5495 124.016 52.1172 124.016 51.6328C124.016 51.1849 124.099 50.7891 124.266 50.4453C124.432 50.1016 124.68 49.8125 125.008 49.5781C125.336 49.3385 125.742 49.1589 126.227 49.0391C126.716 48.9141 127.276 48.8516 127.906 48.8516H129.297ZM137.602 52.2031V48.3047C137.602 48.0182 137.552 47.7708 137.453 47.5625C137.354 47.3542 137.203 47.1927 137 47.0781C136.797 46.9635 136.539 46.9062 136.227 46.9062C135.951 46.9062 135.708 46.9531 135.5 47.0469C135.297 47.1406 135.141 47.2734 135.031 47.4453C134.922 47.612 134.867 47.8047 134.867 48.0234H132.797C132.797 47.6745 132.88 47.3438 133.047 47.0312C133.214 46.7135 133.451 46.4323 133.758 46.1875C134.07 45.9375 134.443 45.7422 134.875 45.6016C135.312 45.4609 135.802 45.3906 136.344 45.3906C136.984 45.3906 137.555 45.5 138.055 45.7188C138.56 45.9323 138.956 46.2552 139.242 46.6875C139.534 47.1198 139.68 47.6641 139.68 48.3203V52.0078C139.68 52.4297 139.706 52.7917 139.758 53.0938C139.815 53.3906 139.898 53.6484 140.008 53.8672V54H137.906C137.807 53.7865 137.732 53.5156 137.68 53.1875C137.628 52.8542 137.602 52.526 137.602 52.2031ZM137.891 48.8516L137.906 50.0781H136.602C136.279 50.0781 135.995 50.112 135.75 50.1797C135.505 50.2422 135.305 50.3359 135.148 50.4609C134.992 50.5807 134.875 50.7266 134.797 50.8984C134.719 51.0651 134.68 51.2552 134.68 51.4688C134.68 51.6771 134.727 51.8646 134.82 52.0312C134.919 52.1979 135.06 52.3307 135.242 52.4297C135.43 52.5234 135.648 52.5703 135.898 52.5703C136.263 52.5703 136.581 52.4974 136.852 52.3516C137.122 52.2005 137.333 52.0182 137.484 51.8047C137.635 51.5911 137.716 51.388 137.727 51.1953L138.32 52.0859C138.247 52.2995 138.138 52.526 137.992 52.7656C137.846 53.0052 137.659 53.2292 137.43 53.4375C137.201 53.6458 136.924 53.8177 136.602 53.9531C136.279 54.0885 135.904 54.1562 135.477 54.1562C134.93 54.1562 134.44 54.0469 134.008 53.8281C133.576 53.6094 133.234 53.3099 132.984 52.9297C132.734 52.5495 132.609 52.1172 132.609 51.6328C132.609 51.1849 132.693 50.7891 132.859 50.4453C133.026 50.1016 133.273 49.8125 133.602 49.5781C133.93 49.3385 134.336 49.1589 134.82 49.0391C135.31 48.9141 135.87 48.8516 136.5 48.8516H137.891ZM143.742 45.5469V54H141.68V45.5469H143.742ZM149.25 45.5469L145.523 50.7344H143.328L143.07 48.8438H144.594L146.648 45.5469H149.25ZM146.773 54L144.461 50.375L146.18 49.2969L149.516 54H146.773ZM154.562 45.5469V54H152.492V45.5469H154.562ZM157.312 45.5469V47.1562H149.789V45.5469H157.312ZM160.609 51.0547L163.688 45.5469H165.758V54H163.688V48.4844L160.609 54H158.539V45.5469H160.609V51.0547ZM171.789 50.4219H169.109L169.094 49.0234H171.297C171.625 49.0234 171.893 48.9896 172.102 48.9219C172.31 48.8542 172.464 48.7526 172.562 48.6172C172.667 48.4818 172.719 48.3177 172.719 48.125C172.719 47.9583 172.688 47.8151 172.625 47.6953C172.562 47.5703 172.469 47.4688 172.344 47.3906C172.224 47.3125 172.07 47.2552 171.883 47.2188C171.701 47.1771 171.487 47.1562 171.242 47.1562H169.844V54H167.773V45.5469H171.242C171.789 45.5469 172.281 45.5964 172.719 45.6953C173.156 45.7891 173.529 45.9323 173.836 46.125C174.143 46.3177 174.378 46.5625 174.539 46.8594C174.706 47.151 174.789 47.4948 174.789 47.8906C174.789 48.151 174.732 48.3958 174.617 48.625C174.503 48.8542 174.333 49.0573 174.109 49.2344C173.885 49.4115 173.609 49.5573 173.281 49.6719C172.953 49.7812 172.578 49.849 172.156 49.875L171.789 50.4219ZM171.789 54H168.555L169.32 52.3906H171.789C172.091 52.3906 172.341 52.3542 172.539 52.2812C172.737 52.2031 172.883 52.0911 172.977 51.9453C173.076 51.7995 173.125 51.6224 173.125 51.4141C173.125 51.2109 173.078 51.0365 172.984 50.8906C172.896 50.7396 172.753 50.625 172.555 50.5469C172.362 50.4635 172.107 50.4219 171.789 50.4219H169.656L169.672 49.0234H172.148L172.695 49.5781C173.258 49.6146 173.724 49.7292 174.094 49.9219C174.464 50.1094 174.74 50.349 174.922 50.6406C175.104 50.9271 175.195 51.2422 175.195 51.5859C175.195 51.987 175.12 52.3385 174.969 52.6406C174.818 52.9427 174.596 53.1953 174.305 53.3984C174.013 53.5964 173.656 53.7474 173.234 53.8516C172.812 53.9505 172.331 54 171.789 54ZM176.328 49.8594V49.6953C176.328 49.0755 176.417 48.5052 176.594 47.9844C176.771 47.4583 177.029 47.0026 177.367 46.6172C177.706 46.2318 178.12 45.9323 178.609 45.7188C179.099 45.5 179.656 45.3906 180.281 45.3906C180.917 45.3906 181.479 45.5 181.969 45.7188C182.464 45.9323 182.88 46.2318 183.219 46.6172C183.557 47.0026 183.815 47.4583 183.992 47.9844C184.169 48.5052 184.258 49.0755 184.258 49.6953V49.8594C184.258 50.474 184.169 51.0443 183.992 51.5703C183.815 52.0911 183.557 52.5469 183.219 52.9375C182.88 53.3229 182.466 53.6224 181.977 53.8359C181.487 54.0495 180.927 54.1562 180.297 54.1562C179.672 54.1562 179.112 54.0495 178.617 53.8359C178.122 53.6224 177.706 53.3229 177.367 52.9375C177.029 52.5469 176.771 52.0911 176.594 51.5703C176.417 51.0443 176.328 50.474 176.328 49.8594ZM178.391 49.6953V49.8594C178.391 50.2292 178.427 50.5755 178.5 50.8984C178.573 51.2214 178.685 51.5052 178.836 51.75C178.987 51.9948 179.182 52.1875 179.422 52.3281C179.667 52.4635 179.958 52.5312 180.297 52.5312C180.63 52.5312 180.917 52.4635 181.156 52.3281C181.396 52.1875 181.591 51.9948 181.742 51.75C181.898 51.5052 182.013 51.2214 182.086 50.8984C182.159 50.5755 182.195 50.2292 182.195 49.8594V49.6953C182.195 49.3307 182.159 48.9896 182.086 48.6719C182.013 48.349 181.898 48.0651 181.742 47.8203C181.591 47.5703 181.393 47.375 181.148 47.2344C180.909 47.0885 180.62 47.0156 180.281 47.0156C179.948 47.0156 179.661 47.0885 179.422 47.2344C179.182 47.375 178.987 47.5703 178.836 47.8203C178.685 48.0651 178.573 48.349 178.5 48.6719C178.427 48.9896 178.391 49.3307 178.391 49.6953ZM189.914 50.4219H187.234L187.219 49.0234H189.422C189.75 49.0234 190.018 48.9896 190.227 48.9219C190.435 48.8542 190.589 48.7526 190.688 48.6172C190.792 48.4818 190.844 48.3177 190.844 48.125C190.844 47.9583 190.812 47.8151 190.75 47.6953C190.688 47.5703 190.594 47.4688 190.469 47.3906C190.349 47.3125 190.195 47.2552 190.008 47.2188C189.826 47.1771 189.612 47.1562 189.367 47.1562H187.969V54H185.898V45.5469H189.367C189.914 45.5469 190.406 45.5964 190.844 45.6953C191.281 45.7891 191.654 45.9323 191.961 46.125C192.268 46.3177 192.503 46.5625 192.664 46.8594C192.831 47.151 192.914 47.4948 192.914 47.8906C192.914 48.151 192.857 48.3958 192.742 48.625C192.628 48.8542 192.458 49.0573 192.234 49.2344C192.01 49.4115 191.734 49.5573 191.406 49.6719C191.078 49.7812 190.703 49.849 190.281 49.875L189.914 50.4219ZM189.914 54H186.68L187.445 52.3906H189.914C190.216 52.3906 190.466 52.3542 190.664 52.2812C190.862 52.2031 191.008 52.0911 191.102 51.9453C191.201 51.7995 191.25 51.6224 191.25 51.4141C191.25 51.2109 191.203 51.0365 191.109 50.8906C191.021 50.7396 190.878 50.625 190.68 50.5469C190.487 50.4635 190.232 50.4219 189.914 50.4219H187.781L187.797 49.0234H190.273L190.82 49.5781C191.383 49.6146 191.849 49.7292 192.219 49.9219C192.589 50.1094 192.865 50.349 193.047 50.6406C193.229 50.9271 193.32 51.2422 193.32 51.5859C193.32 51.987 193.245 52.3385 193.094 52.6406C192.943 52.9427 192.721 53.1953 192.43 53.3984C192.138 53.5964 191.781 53.7474 191.359 53.8516C190.938 53.9505 190.456 54 189.914 54ZM199.477 52.2031V48.3047C199.477 48.0182 199.427 47.7708 199.328 47.5625C199.229 47.3542 199.078 47.1927 198.875 47.0781C198.672 46.9635 198.414 46.9062 198.102 46.9062C197.826 46.9062 197.583 46.9531 197.375 47.0469C197.172 47.1406 197.016 47.2734 196.906 47.4453C196.797 47.612 196.742 47.8047 196.742 48.0234H194.672C194.672 47.6745 194.755 47.3438 194.922 47.0312C195.089 46.7135 195.326 46.4323 195.633 46.1875C195.945 45.9375 196.318 45.7422 196.75 45.6016C197.188 45.4609 197.677 45.3906 198.219 45.3906C198.859 45.3906 199.43 45.5 199.93 45.7188C200.435 45.9323 200.831 46.2552 201.117 46.6875C201.409 47.1198 201.555 47.6641 201.555 48.3203V52.0078C201.555 52.4297 201.581 52.7917 201.633 53.0938C201.69 53.3906 201.773 53.6484 201.883 53.8672V54H199.781C199.682 53.7865 199.607 53.5156 199.555 53.1875C199.503 52.8542 199.477 52.526 199.477 52.2031ZM199.766 48.8516L199.781 50.0781H198.477C198.154 50.0781 197.87 50.112 197.625 50.1797C197.38 50.2422 197.18 50.3359 197.023 50.4609C196.867 50.5807 196.75 50.7266 196.672 50.8984C196.594 51.0651 196.555 51.2552 196.555 51.4688C196.555 51.6771 196.602 51.8646 196.695 52.0312C196.794 52.1979 196.935 52.3307 197.117 52.4297C197.305 52.5234 197.523 52.5703 197.773 52.5703C198.138 52.5703 198.456 52.4974 198.727 52.3516C198.997 52.2005 199.208 52.0182 199.359 51.8047C199.51 51.5911 199.591 51.388 199.602 51.1953L200.195 52.0859C200.122 52.2995 200.013 52.526 199.867 52.7656C199.721 53.0052 199.534 53.2292 199.305 53.4375C199.076 53.6458 198.799 53.8177 198.477 53.9531C198.154 54.0885 197.779 54.1562 197.352 54.1562C196.805 54.1562 196.315 54.0469 195.883 53.8281C195.451 53.6094 195.109 53.3099 194.859 52.9297C194.609 52.5495 194.484 52.1172 194.484 51.6328C194.484 51.1849 194.568 50.7891 194.734 50.4453C194.901 50.1016 195.148 49.8125 195.477 49.5781C195.805 49.3385 196.211 49.1589 196.695 49.0391C197.185 48.9141 197.745 48.8516 198.375 48.8516H199.766ZM209.188 49.0156V50.6328H204.852V49.0156H209.188ZM205.5 45.5469V54H203.43V45.5469H205.5ZM210.633 45.5469V54H208.555V45.5469H210.633ZM214.695 45.5469V54H212.625V45.5469H214.695ZM212.484 43.3359C212.484 43.0286 212.589 42.7734 212.797 42.5703C213.01 42.3672 213.297 42.2656 213.656 42.2656C214.016 42.2656 214.299 42.3672 214.508 42.5703C214.721 42.7734 214.828 43.0286 214.828 43.3359C214.828 43.638 214.721 43.8906 214.508 44.0938C214.299 44.2969 214.016 44.3984 213.656 44.3984C213.297 44.3984 213.01 44.2969 212.797 44.0938C212.589 43.8906 212.484 43.638 212.484 43.3359ZM216.75 52.9922C216.75 52.6797 216.857 52.4167 217.07 52.2031C217.284 51.9896 217.573 51.8828 217.938 51.8828C218.302 51.8828 218.591 51.9896 218.805 52.2031C219.018 52.4167 219.125 52.6797 219.125 52.9922C219.125 53.2995 219.018 53.5599 218.805 53.7734C218.591 53.9818 218.302 54.0859 217.938 54.0859C217.573 54.0859 217.284 53.9818 217.07 53.7734C216.857 53.5599 216.75 53.2995 216.75 52.9922ZM106.297 68.0234V68.6094C106.297 69.4688 106.182 70.2422 105.953 70.9297C105.724 71.612 105.398 72.1927 104.977 72.6719C104.555 73.151 104.052 73.5182 103.469 73.7734C102.885 74.0286 102.237 74.1562 101.523 74.1562C100.82 74.1562 100.174 74.0286 99.5859 73.7734C99.0026 73.5182 98.4974 73.151 98.0703 72.6719C97.6432 72.1927 97.3125 71.612 97.0781 70.9297C96.8438 70.2422 96.7266 69.4688 96.7266 68.6094V68.0234C96.7266 67.1589 96.8438 66.3854 97.0781 65.7031C97.3125 65.0208 97.6406 64.4401 98.0625 63.9609C98.4844 63.4766 98.987 63.1068 99.5703 62.8516C100.159 62.5964 100.805 62.4688 101.508 62.4688C102.221 62.4688 102.87 62.5964 103.453 62.8516C104.036 63.1068 104.539 63.4766 104.961 63.9609C105.388 64.4401 105.716 65.0208 105.945 65.7031C106.18 66.3854 106.297 67.1589 106.297 68.0234ZM104.125 68.6094V68.0078C104.125 67.388 104.068 66.8438 103.953 66.375C103.839 65.901 103.669 65.5026 103.445 65.1797C103.221 64.8568 102.945 64.6146 102.617 64.4531C102.289 64.2865 101.919 64.2031 101.508 64.2031C101.091 64.2031 100.721 64.2865 100.398 64.4531C100.081 64.6146 99.8099 64.8568 99.5859 65.1797C99.362 65.5026 99.1901 65.901 99.0703 66.375C98.9557 66.8438 98.8984 67.388 98.8984 68.0078V68.6094C98.8984 69.224 98.9557 69.7682 99.0703 70.2422C99.1901 70.7161 99.362 71.1172 99.5859 71.4453C99.8151 71.7682 100.091 72.013 100.414 72.1797C100.737 72.3464 101.107 72.4297 101.523 72.4297C101.94 72.4297 102.31 72.3464 102.633 72.1797C102.956 72.013 103.227 71.7682 103.445 71.4453C103.669 71.1172 103.839 70.7161 103.953 70.2422C104.068 69.7682 104.125 69.224 104.125 68.6094ZM114.914 65.5469V74H112.844V65.5469H114.914ZM113.977 69.2266V70.8516C113.779 70.9453 113.539 71.0339 113.258 71.1172C112.982 71.1953 112.69 71.2578 112.383 71.3047C112.081 71.3516 111.786 71.375 111.5 71.375C110.724 71.375 110.055 71.2604 109.492 71.0312C108.935 70.8021 108.505 70.4505 108.203 69.9766C107.901 69.4974 107.75 68.8854 107.75 68.1406V65.5391H109.812V68.1406C109.812 68.5417 109.872 68.8594 109.992 69.0938C110.112 69.3281 110.297 69.4948 110.547 69.5938C110.797 69.6927 111.115 69.7422 111.5 69.7422C111.797 69.7422 112.081 69.7214 112.352 69.6797C112.622 69.6328 112.891 69.5729 113.156 69.5C113.427 69.4219 113.701 69.3307 113.977 69.2266ZM118.977 65.5469V74H116.906V65.5469H118.977ZM116.766 63.3359C116.766 63.0286 116.87 62.7734 117.078 62.5703C117.292 62.3672 117.578 62.2656 117.938 62.2656C118.297 62.2656 118.581 62.3672 118.789 62.5703C119.003 62.7734 119.109 63.0286 119.109 63.3359C119.109 63.638 119.003 63.8906 118.789 64.0938C118.581 64.2969 118.297 64.3984 117.938 64.3984C117.578 64.3984 117.292 64.2969 117.078 64.0938C116.87 63.8906 116.766 63.638 116.766 63.3359ZM123.148 65.5469V74H121.086V65.5469H123.148ZM128.656 65.5469L124.93 70.7344H122.734L122.477 68.8438H124L126.055 65.5469H128.656ZM126.18 74L123.867 70.375L125.586 69.2969L128.922 74H126.18ZM132.344 73.0625L134.609 65.5469H136.82L133.43 75.2812C133.352 75.4896 133.25 75.7161 133.125 75.9609C133.005 76.2057 132.844 76.4375 132.641 76.6562C132.438 76.8802 132.182 77.0625 131.875 77.2031C131.573 77.3438 131.206 77.4141 130.773 77.4141C130.586 77.4141 130.419 77.401 130.273 77.375C130.128 77.349 129.974 77.3151 129.812 77.2734V75.7266C129.865 75.7318 129.924 75.7344 129.992 75.7344C130.065 75.7396 130.128 75.7422 130.18 75.7422C130.482 75.7422 130.732 75.7057 130.93 75.6328C131.128 75.5651 131.286 75.4531 131.406 75.2969C131.531 75.1458 131.635 74.9479 131.719 74.7031L132.344 73.0625ZM131.227 65.5469L133.141 71.7734L133.477 73.9531L132.055 74.2109L129 65.5469H131.227ZM142.852 68.8906V70.5234H138.305V68.8906H142.852ZM140.055 65.5469V74H137.984V65.5469H140.055ZM141.398 69.8594V69.6953C141.398 69.0755 141.487 68.5052 141.664 67.9844C141.841 67.4583 142.099 67.0026 142.438 66.6172C142.776 66.2318 143.19 65.9323 143.68 65.7188C144.169 65.5 144.727 65.3906 145.352 65.3906C145.987 65.3906 146.549 65.5 147.039 65.7188C147.534 65.9323 147.951 66.2318 148.289 66.6172C148.633 67.0026 148.891 67.4583 149.062 67.9844C149.24 68.5052 149.328 69.0755 149.328 69.6953V69.8594C149.328 70.474 149.24 71.0443 149.062 71.5703C148.891 72.0911 148.635 72.5469 148.297 72.9375C147.958 73.3229 147.542 73.6224 147.047 73.8359C146.557 74.0495 145.997 74.1562 145.367 74.1562C144.737 74.1562 144.177 74.0495 143.688 73.8359C143.198 73.6224 142.781 73.3229 142.438 72.9375C142.099 72.5469 141.841 72.0911 141.664 71.5703C141.487 71.0443 141.398 70.474 141.398 69.8594ZM143.461 69.6953V69.8594C143.461 70.2292 143.497 70.5755 143.57 70.8984C143.643 71.2214 143.755 71.5052 143.906 71.75C144.062 71.9948 144.26 72.1875 144.5 72.3281C144.74 72.4635 145.029 72.5312 145.367 72.5312C145.706 72.5312 145.995 72.4635 146.234 72.3281C146.474 72.1875 146.669 71.9948 146.82 71.75C146.971 71.5052 147.083 71.2214 147.156 70.8984C147.229 70.5755 147.266 70.2292 147.266 69.8594V69.6953C147.266 69.3307 147.229 68.9896 147.156 68.6719C147.083 68.349 146.969 68.0651 146.812 67.8203C146.661 67.5703 146.464 67.375 146.219 67.2344C145.979 67.0885 145.69 67.0156 145.352 67.0156C145.018 67.0156 144.732 67.0885 144.492 67.2344C144.258 67.375 144.062 67.5703 143.906 67.8203C143.755 68.0651 143.643 68.349 143.57 68.6719C143.497 68.9896 143.461 69.3307 143.461 69.6953ZM160.578 69.0156V70.6328H156.242V69.0156H160.578ZM156.891 65.5469V74H154.82V65.5469H156.891ZM162.023 65.5469V74H159.945V65.5469H162.023ZM168.555 72.2031V68.3047C168.555 68.0182 168.505 67.7708 168.406 67.5625C168.307 67.3542 168.156 67.1927 167.953 67.0781C167.75 66.9635 167.492 66.9062 167.18 66.9062C166.904 66.9062 166.661 66.9531 166.453 67.0469C166.25 67.1406 166.094 67.2734 165.984 67.4453C165.875 67.612 165.82 67.8047 165.82 68.0234H163.75C163.75 67.6745 163.833 67.3438 164 67.0312C164.167 66.7135 164.404 66.4323 164.711 66.1875C165.023 65.9375 165.396 65.7422 165.828 65.6016C166.266 65.4609 166.755 65.3906 167.297 65.3906C167.938 65.3906 168.508 65.5 169.008 65.7188C169.513 65.9323 169.909 66.2552 170.195 66.6875C170.487 67.1198 170.633 67.6641 170.633 68.3203V72.0078C170.633 72.4297 170.659 72.7917 170.711 73.0938C170.768 73.3906 170.852 73.6484 170.961 73.8672V74H168.859C168.76 73.7865 168.685 73.5156 168.633 73.1875C168.581 72.8542 168.555 72.526 168.555 72.2031ZM168.844 68.8516L168.859 70.0781H167.555C167.232 70.0781 166.948 70.112 166.703 70.1797C166.458 70.2422 166.258 70.3359 166.102 70.4609C165.945 70.5807 165.828 70.7266 165.75 70.8984C165.672 71.0651 165.633 71.2552 165.633 71.4688C165.633 71.6771 165.68 71.8646 165.773 72.0312C165.872 72.1979 166.013 72.3307 166.195 72.4297C166.383 72.5234 166.602 72.5703 166.852 72.5703C167.216 72.5703 167.534 72.4974 167.805 72.3516C168.076 72.2005 168.286 72.0182 168.438 71.8047C168.589 71.5911 168.669 71.388 168.68 71.1953L169.273 72.0859C169.201 72.2995 169.091 72.526 168.945 72.7656C168.799 73.0052 168.612 73.2292 168.383 73.4375C168.154 73.6458 167.878 73.8177 167.555 73.9531C167.232 74.0885 166.857 74.1562 166.43 74.1562C165.883 74.1562 165.393 74.0469 164.961 73.8281C164.529 73.6094 164.188 73.3099 163.938 72.9297C163.688 72.5495 163.562 72.1172 163.562 71.6328C163.562 71.1849 163.646 70.7891 163.812 70.4453C163.979 70.1016 164.227 69.8125 164.555 69.5781C164.883 69.3385 165.289 69.1589 165.773 69.0391C166.263 68.9141 166.823 68.8516 167.453 68.8516H168.844ZM178.68 65.5469V74H176.617V65.5469H178.68ZM184.188 65.5469L180.461 70.7344H178.266L178.008 68.8438H179.531L181.586 65.5469H184.188ZM181.711 74L179.398 70.375L181.117 69.2969L184.453 74H181.711ZM184.719 69.8594V69.6953C184.719 69.0755 184.807 68.5052 184.984 67.9844C185.161 67.4583 185.419 67.0026 185.758 66.6172C186.096 66.2318 186.51 65.9323 187 65.7188C187.49 65.5 188.047 65.3906 188.672 65.3906C189.307 65.3906 189.87 65.5 190.359 65.7188C190.854 65.9323 191.271 66.2318 191.609 66.6172C191.948 67.0026 192.206 67.4583 192.383 67.9844C192.56 68.5052 192.648 69.0755 192.648 69.6953V69.8594C192.648 70.474 192.56 71.0443 192.383 71.5703C192.206 72.0911 191.948 72.5469 191.609 72.9375C191.271 73.3229 190.857 73.6224 190.367 73.8359C189.878 74.0495 189.318 74.1562 188.688 74.1562C188.062 74.1562 187.503 74.0495 187.008 73.8359C186.513 73.6224 186.096 73.3229 185.758 72.9375C185.419 72.5469 185.161 72.0911 184.984 71.5703C184.807 71.0443 184.719 70.474 184.719 69.8594ZM186.781 69.6953V69.8594C186.781 70.2292 186.818 70.5755 186.891 70.8984C186.964 71.2214 187.076 71.5052 187.227 71.75C187.378 71.9948 187.573 72.1875 187.812 72.3281C188.057 72.4635 188.349 72.5312 188.688 72.5312C189.021 72.5312 189.307 72.4635 189.547 72.3281C189.786 72.1875 189.982 71.9948 190.133 71.75C190.289 71.5052 190.404 71.2214 190.477 70.8984C190.549 70.5755 190.586 70.2292 190.586 69.8594V69.6953C190.586 69.3307 190.549 68.9896 190.477 68.6719C190.404 68.349 190.289 68.0651 190.133 67.8203C189.982 67.5703 189.784 67.375 189.539 67.2344C189.299 67.0885 189.01 67.0156 188.672 67.0156C188.339 67.0156 188.052 67.0885 187.812 67.2344C187.573 67.375 187.378 67.5703 187.227 67.8203C187.076 68.0651 186.964 68.349 186.891 68.6719C186.818 68.9896 186.781 69.3307 186.781 69.6953ZM199.219 71.5625L201.594 65.5469H203.32L199.922 74H198.523L195.133 65.5469H196.867L199.219 71.5625ZM196.359 65.5469V74H194.289V65.5469H196.359ZM202.117 74V65.5469H204.188V74H202.117ZM210.898 72.2031V68.3047C210.898 68.0182 210.849 67.7708 210.75 67.5625C210.651 67.3542 210.5 67.1927 210.297 67.0781C210.094 66.9635 209.836 66.9062 209.523 66.9062C209.247 66.9062 209.005 66.9531 208.797 67.0469C208.594 67.1406 208.438 67.2734 208.328 67.4453C208.219 67.612 208.164 67.8047 208.164 68.0234H206.094C206.094 67.6745 206.177 67.3438 206.344 67.0312C206.51 66.7135 206.747 66.4323 207.055 66.1875C207.367 65.9375 207.74 65.7422 208.172 65.6016C208.609 65.4609 209.099 65.3906 209.641 65.3906C210.281 65.3906 210.852 65.5 211.352 65.7188C211.857 65.9323 212.253 66.2552 212.539 66.6875C212.831 67.1198 212.977 67.6641 212.977 68.3203V72.0078C212.977 72.4297 213.003 72.7917 213.055 73.0938C213.112 73.3906 213.195 73.6484 213.305 73.8672V74H211.203C211.104 73.7865 211.029 73.5156 210.977 73.1875C210.924 72.8542 210.898 72.526 210.898 72.2031ZM211.188 68.8516L211.203 70.0781H209.898C209.576 70.0781 209.292 70.112 209.047 70.1797C208.802 70.2422 208.602 70.3359 208.445 70.4609C208.289 70.5807 208.172 70.7266 208.094 70.8984C208.016 71.0651 207.977 71.2552 207.977 71.4688C207.977 71.6771 208.023 71.8646 208.117 72.0312C208.216 72.1979 208.357 72.3307 208.539 72.4297C208.727 72.5234 208.945 72.5703 209.195 72.5703C209.56 72.5703 209.878 72.4974 210.148 72.3516C210.419 72.2005 210.63 72.0182 210.781 71.8047C210.932 71.5911 211.013 71.388 211.023 71.1953L211.617 72.0859C211.544 72.2995 211.435 72.526 211.289 72.7656C211.143 73.0052 210.956 73.2292 210.727 73.4375C210.497 73.6458 210.221 73.8177 209.898 73.9531C209.576 74.0885 209.201 74.1562 208.773 74.1562C208.227 74.1562 207.737 74.0469 207.305 73.8281C206.872 73.6094 206.531 73.3099 206.281 72.9297C206.031 72.5495 205.906 72.1172 205.906 71.6328C205.906 71.1849 205.99 70.7891 206.156 70.4453C206.323 70.1016 206.57 69.8125 206.898 69.5781C207.227 69.3385 207.633 69.1589 208.117 69.0391C208.607 68.9141 209.167 68.8516 209.797 68.8516H211.188ZM220.609 69.0156V70.6328H216.273V69.0156H220.609ZM216.922 65.5469V74H214.852V65.5469H216.922ZM222.055 65.5469V74H219.977V65.5469H222.055ZM225.453 65.5469H227.516L227.438 68.4531C227.411 69.3333 227.307 70.0938 227.125 70.7344C226.948 71.3698 226.711 71.9036 226.414 72.3359C226.122 72.7682 225.789 73.1172 225.414 73.3828C225.044 73.6484 224.656 73.8542 224.25 74H223.758L223.75 72.3906L223.992 72.375C224.237 72.1146 224.443 71.8594 224.609 71.6094C224.781 71.3542 224.919 71.0807 225.023 70.7891C225.128 70.4974 225.206 70.1641 225.258 69.7891C225.315 69.4089 225.352 68.9635 225.367 68.4531L225.453 65.5469ZM226.008 65.5469H231.484V74H229.422V67.2422H226.008V65.5469ZM223.289 72.375H232.664V76.5312H230.602V74H225.391V76.5312H223.281L223.289 72.375ZM236.406 73.0625L238.672 65.5469H240.883L237.492 75.2812C237.414 75.4896 237.312 75.7161 237.188 75.9609C237.068 76.2057 236.906 76.4375 236.703 76.6562C236.5 76.8802 236.245 77.0625 235.938 77.2031C235.635 77.3438 235.268 77.4141 234.836 77.4141C234.648 77.4141 234.482 77.401 234.336 77.375C234.19 77.349 234.036 77.3151 233.875 77.2734V75.7266C233.927 75.7318 233.987 75.7344 234.055 75.7344C234.128 75.7396 234.19 75.7422 234.242 75.7422C234.544 75.7422 234.794 75.7057 234.992 75.6328C235.19 75.5651 235.349 75.4531 235.469 75.2969C235.594 75.1458 235.698 74.9479 235.781 74.7031L236.406 73.0625ZM235.289 65.5469L237.203 71.7734L237.539 73.9531L236.117 74.2109L233.062 65.5469H235.289ZM244.234 62.625L244.008 70.5859H242.266L242.039 62.625H244.234ZM241.977 73.0391C241.977 72.7318 242.081 72.474 242.289 72.2656C242.503 72.0521 242.789 71.9453 243.148 71.9453C243.508 71.9453 243.792 72.0521 244 72.2656C244.214 72.474 244.32 72.7318 244.32 73.0391C244.32 73.3411 244.214 73.5964 244 73.8047C243.792 74.013 243.508 74.1172 243.148 74.1172C242.789 74.1172 242.503 74.013 242.289 73.8047C242.081 73.5964 241.977 73.3411 241.977 73.0391Z" fill="#707070"></path>
<defs>
<radialGradient id="paint0_radial_15803_453" cx="0" cy="0" r="1" gradientUnits="userSpaceOnUse" gradientTransform="translate(162.206 119.446) rotate(90) scale(4.5429 3.2252)">
<stop stop-color="#FFBBBB"></stop>
<stop offset="1" stop-color="#FFBBBB" stop-opacity="0"></stop>
</radialGradient>
<radialGradient id="paint1_radial_15803_453" cx="0" cy="0" r="1" gradientUnits="userSpaceOnUse" gradientTransform="translate(148.546 118.983) rotate(90) scale(4.5429 3.2252)">
<stop stop-color="#FFBBBB"></stop>
<stop offset="1" stop-color="#FFBBBB" stop-opacity="0"></stop>
</radialGradient>
</defs>
</svg>
